<?xml version="1.0" encoding="utf-8"?>
<!-- Generator: Adobe Illustrator 21.0.2, SVG Export Plug-In . SVG Version: 6.00 Build 0)  -->
<svg version="1.2" baseProfile="tiny" id="Livello_1"
	 xmlns="http://www.w3.org/2000/svg" xmlns:xlink="http://www.w3.org/1999/xlink" x="0px" y="0px" width="255.3px" height="47.5px"
	 viewBox="0 0 255.3 47.5" xml:space="preserve">
<g>
	<path d="M11.1,32.3c-2.2-2.1-3.3-4.9-3.3-8.3s1.1-6.1,3.3-8.3s4.9-3.2,8.1-3.2c2.3,0,4.3,0.6,6.1,1.6c1.8,1,3.1,2.6,4.1,4.6h-2.8
		c-0.7-1.3-1.7-2.3-3-3.1s-2.8-1.1-4.5-1.1c-2.7,0-4.8,0.9-6.6,2.6c-1.7,1.9-2.6,4.2-2.6,7c0,2.9,0.9,5.1,2.6,6.9
		c1.7,1.8,3.9,2.6,6.6,2.6c1.7,0,3.1-0.3,4.5-1.1c1.3-0.8,2.3-1.8,3-3.1h2.8c-0.9,2-2.2,3.6-4.1,4.6c-1.8,1-3.9,1.6-6.1,1.6
		C16.1,35.6,13.4,34.6,11.1,32.3z"/>
	<path d="M47.3,12.8v1.9H38v8.5h8.3V25H38v8.6h9.1v1.8H35.8V12.8H47.3z"/>
	<path d="M54.6,18.9c0,0.9,0.2,1.7,0.7,2.2c0.4,0.6,1.1,1,1.8,1.2c0.8,0.2,1.6,0.6,2.5,0.7c0.9,0.2,1.8,0.4,2.7,0.7
		c0.9,0.2,1.7,0.6,2.5,0.9c0.8,0.3,1.3,1,1.8,1.8c0.4,0.8,0.7,1.8,0.7,2.9c0,1.7-0.7,3.2-1.9,4.5c-1.3,1.3-3,1.9-5.2,1.9
		s-4-0.4-5.5-1.4c-1.4-1-2.1-2.3-2.1-4h2.5c0.1,1,0.6,1.9,1.3,2.6s2,1,3.6,1s2.9-0.4,3.8-1.2c1-0.8,1.4-1.9,1.4-3.1
		c0-1.2-0.4-2.1-1.3-2.8c-0.9-0.7-1.9-1-3.1-1.3c-1.2-0.2-2.5-0.6-3.7-0.8c-1.2-0.3-2.2-0.9-3.1-1.9c-0.9-0.9-1.3-2.2-1.3-4
		c0-1.8,0.7-3.2,1.9-4.3s3-1.7,5.1-1.7c2.1,0,3.8,0.4,5,1.4s2,2.3,2.2,3.9h-2.6c-0.1-0.9-0.6-1.7-1.3-2.5c-0.8-0.7-2-1-3.3-1
		s-2.6,0.3-3.5,1.1C55.1,16.4,54.6,17.4,54.6,18.9z"/>
	<path d="M87.9,35.4L86,30.1H75.5l-1.9,5.2h-2.3l8.3-22.5h2.3l8.3,22.5C90.1,35.4,87.9,35.4,87.9,35.4z M76.2,28.3h9.1l-4.6-12.6
		L76.2,28.3z"/>
	<path d="M97.9,26v9.5h-2.3V12.8h6.9c2.6,0,4.5,0.6,5.8,1.8c1.3,1.2,2,2.8,2,4.6c0,1.9-0.6,3.3-1.6,4.5c-1,1.1-2.6,1.9-4.6,2.1
		l6.4,9.6h-3l-6.1-9.5h-3.5V26z M97.9,14.7v9.4h4.6c3.6,0,5.4-1.6,5.4-4.7s-1.7-4.7-5.2-4.7H97.9z"/>
	<path d="M128.1,12.8v1.9H119v8.5h8.3V25H119v8.6h9.1v1.8h-11.5V12.8H128.1z"/>
	<path d="M157.7,14.6c1.3,1.2,2,2.8,2,4.8s-0.7,3.6-1.9,4.8c-1.3,1.2-3.2,1.8-5.8,1.8h-4.6v9.5h-2.3V12.8h6.9
		C154.4,12.8,156.3,13.5,157.7,14.6z M147.3,24.1h4.6c3.6,0,5.4-1.6,5.4-4.7s-1.8-4.7-5.4-4.7h-4.6V24.1z"/>
	<path d="M165.3,35.4V12.8h2.3v22.5H165.3z"/>
	<path d="M176,32.3c-2.2-2.1-3.3-4.9-3.3-8.3s1.1-6.1,3.3-8.3s4.9-3.2,8.1-3.2c2.3,0,4.3,0.6,6.1,1.6s3.1,2.6,4.1,4.6h-2.8
		c-0.7-1.3-1.7-2.3-3-3.1s-2.8-1.1-4.5-1.1c-2.7,0-4.8,0.9-6.6,2.6c-1.7,1.8-2.6,4-2.6,6.9s0.9,5.1,2.6,6.9s3.9,2.6,6.6,2.6
		c1.7,0,3.1-0.3,4.5-1.1s2.3-1.8,3-3.1h2.8c-0.9,2-2.2,3.6-4.1,4.6c-1.8,1-3.9,1.6-6.1,1.6C181,35.6,178.3,34.6,176,32.3z"/>
	<path d="M201.9,32.3c-2.2-2.1-3.3-4.9-3.3-8.3s1.1-6.1,3.3-8.3c2.2-2.1,4.9-3.2,8.1-3.2c2.3,0,4.3,0.6,6.1,1.6s3.1,2.6,4.1,4.6
		h-2.8c-0.7-1.3-1.7-2.3-3-3.1s-2.8-1.1-4.5-1.1c-2.7,0-4.8,0.9-6.6,2.6c-1.7,1.8-2.6,4-2.6,6.9s0.9,5.1,2.6,6.9
		c1.7,1.8,3.9,2.6,6.6,2.6c1.7,0,3.1-0.3,4.5-1.1s2.3-1.8,3-3.1h2.8c-0.9,2-2.2,3.6-4.1,4.6c-1.8,1-3.9,1.6-6.1,1.6
		C206.8,35.6,204,34.6,201.9,32.3z"/>
	<path d="M228.7,32.3c-2.2-2.1-3.3-4.9-3.3-8.3s1.1-6.1,3.3-8.3s4.9-3.2,8.1-3.2c3.2,0,5.9,1.1,8.1,3.2s3.3,4.9,3.3,8.3
		s-1.1,6.1-3.3,8.3s-4.9,3.2-8.1,3.2C233.6,35.7,230.9,34.6,228.7,32.3z M243.4,31c1.8-1.8,2.6-4,2.6-6.9s-0.9-5.1-2.6-6.9
		c-1.7-1.8-3.9-2.6-6.6-2.6s-4.8,0.9-6.6,2.6c-1.8,1.8-2.6,4-2.6,6.9s0.9,5.1,2.6,6.9c1.8,1.8,3.9,2.7,6.6,2.7S241.6,32.8,243.4,31z
		"/>
</g>
</svg>
